<svg xmlns="http://www.w3.org/2000/svg" width="466" height="87" viewBox="0 0 466 87" xmlns:xlink="http://www.w3.org/1999/xlink">
  <defs>
    <linearGradient id="b" x1="50%" x2="50%" y1="37.193%" y2="62.16%">
      <stop stop-color="#FFFFFF" stop-opacity=".244" offset="0%"/>
      <stop stop-color="#FFFFFF" stop-opacity="0" offset="100%"/>
    </linearGradient>
    <polygon id="a" points="1 50.162 49 70.293 49 86.293 1 66.162"/>
    <polyline id="c" points="49.106 50.018 .894 25.076 .894 41.076 49.106 66.018"/>
    <polyline id="d" points="49.106 25.018 .894 .076 .894 16.076 49.106 41.018"/>
  </defs>
  <g fill="none" fill-rule="evenodd">
    <g transform="translate(3)">
      <use fill="#06567D" xlink:href="#a"/>
      <use fill="url(#b)" xlink:href="#a"/>
      <use fill="#06567D" xlink:href="#c"/>
      <use fill="url(#b)" xlink:href="#c"/>
      <g>
        <use fill="#06567D" xlink:href="#d"/>
        <use fill="url(#b)" xlink:href="#d"/>
      </g>
    </g>
    <g fill="#20A7E9">
      <rect width="56" height="16" y="50" rx="4"/>
      <rect width="56" height="16" y="25" rx="4"/>
      <rect width="56" height="16" rx="4"/>
    </g>
    <path fill="#0B202A" d="M82.448,51.6 C83.096,61.104 89.792,66.576 100.376,66.576 C112.616,66.576 118.088,60.024 118.088,51.888 C118.088,44.904 114.848,40.008 102.392,36.264 C95.048,34.104 92.528,32.808 92.528,28.776 C92.528,24.96 94.976,22.656 99.872,22.656 C105.416,22.656 107.576,25.608 108.296,29.712 L116.864,29.712 C116.288,22.08 111.464,15.888 100.016,15.888 C90.656,15.888 83.816,20.928 83.816,29.64 C83.816,36.768 87.704,40.656 98.792,43.824 C106.496,46.056 109.16,48.072 109.16,52.896 C109.16,57.072 106.496,59.736 100.808,59.736 C95.336,59.736 91.88,56.784 91.088,51.6 L82.448,51.6 Z M134.072,80.4 L134.072,62.4 C135.512,64.848 138.392,66.648 143.36,66.648 C152.216,66.648 158.984,59.232 158.984,46.992 C158.984,34.32 152.864,28.272 145.016,28.272 C138.824,28.272 135.584,31.224 134.072,34.248 C134,32.304 133.928,30.216 133.856,28.992 L125.576,28.992 C125.72,31.368 125.648,34.752 125.648,39.792 L125.648,80.4 L134.072,80.4 Z M150.344,47.208 C150.344,55.344 147.248,59.736 141.776,59.736 C135.296,59.736 133.712,55.056 133.712,47.568 C133.712,39.216 135.656,35.256 142.136,35.256 C147.032,35.256 150.344,38.928 150.344,47.208 Z M166.328,66 L174.824,66 L174.824,48.72 C174.824,40.368 178.28,37.056 186.128,36.984 L186.128,28.344 C179.648,28.416 176.12,32.232 174.68,35.832 C174.68,33.024 174.608,30.648 174.464,28.992 L166.184,28.992 C166.328,31.296 166.328,35.544 166.328,41.52 L166.328,66 Z M192.032,66 L200.528,66 L200.528,28.992 L192.032,28.992 L192.032,66 Z M200.528,22.152 L200.528,13.584 L192.032,13.584 L192.032,22.152 L200.528,22.152 Z M210.176,66 L218.672,66 L218.672,45.624 C218.672,38.712 220.976,35.328 226.16,35.328 C231.056,35.328 232.352,38.856 232.352,43.392 L232.352,66 L240.848,66 L240.848,41.88 C240.848,32.88 236.6,28.272 229.112,28.272 C223.568,28.272 220.112,31.08 218.6,34.104 C218.6,32.448 218.456,29.64 218.312,28.992 L210.032,28.992 C210.104,30.576 210.176,32.88 210.176,40.512 L210.176,66 Z M281.312,40.008 C281.312,34.896 281.384,30.792 281.456,28.992 L273.248,28.992 C273.104,29.712 272.888,31.656 272.888,32.736 C271.952,30.504 269.432,28.272 263.6,28.272 C255.176,28.272 248.264,35.328 248.264,47.208 C248.264,58.656 254.024,65.712 262.808,65.712 C267.704,65.712 271.16,64.2 273.032,60.456 L273.032,63.048 C273.032,70.176 271.592,74.352 264.824,74.352 C260.576,74.352 257.912,72.624 257.264,69.312 L248.84,69.312 C249.344,74.712 252.8,80.976 264.392,80.976 C276.632,80.976 281.312,74.064 281.312,62.616 L281.312,40.008 Z M256.976,47.064 C256.976,39.144 260.432,35.328 265.4,35.328 C271.952,35.328 273.248,39.288 273.248,46.92 C273.248,55.056 271.16,58.656 265.112,58.656 C260,58.656 256.976,54.264 256.976,47.064 Z M290.816,54.984 C290.816,59.016 290.744,63.696 290.672,66 L298.88,66 C299.024,64.704 299.168,63.336 299.168,62.04 C300.464,64.344 303.056,66.648 308.528,66.648 C318.968,66.648 324.08,58.008 324.08,46.344 C324.08,36.192 319.184,28.272 309.824,28.272 C303.92,28.272 300.896,30.864 299.312,33.384 L299.312,13.584 L290.816,13.584 L290.816,54.984 Z M315.44,46.632 C315.44,54.552 312.848,59.736 307.16,59.736 C300.824,59.736 298.808,55.272 298.808,47.136 C298.808,39.504 300.896,35.328 307.232,35.328 C312.92,35.328 315.44,40.008 315.44,46.632 Z M346.544,28.272 C334.376,28.272 329.12,37.776 329.12,47.136 C329.12,57.216 333.656,66.648 346.112,66.648 C358.424,66.648 363.392,57.72 363.392,46.92 C363.392,36.696 357.992,28.272 346.544,28.272 Z M346.184,35.04 C352.016,35.04 354.824,39.432 354.824,46.992 C354.824,55.128 352.016,59.952 346.472,59.952 C340.712,59.952 337.76,55.056 337.76,46.992 C337.76,39.792 340.712,35.04 346.184,35.04 Z M398.888,40.224 C398.888,31.296 393.2,28.272 384.776,28.272 C373.904,28.272 370.376,33.888 369.944,39.864 L378.152,39.864 C378.584,36.696 379.952,34.392 384.632,34.392 C389.6,34.392 390.536,37.2 390.536,40.368 L390.536,43.32 L385.784,43.32 C372.752,43.32 368.504,49.08 368.504,55.344 C368.504,60.816 371.6,66.648 380.744,66.648 C386.288,66.648 389.888,64.344 391.328,61.104 C391.4,62.688 391.616,64.848 391.904,66 L399.392,66 C399.032,63.624 398.888,59.376 398.888,56.856 L398.888,40.224 Z M390.824,49.728 C390.824,55.848 389.096,60.096 382.832,60.096 C378.8,60.096 377.072,57.648 377.072,54.768 C377.072,51.96 378.44,48.936 385.856,48.936 L390.824,48.936 L390.824,49.728 Z M408.536,66 L417.032,66 L417.032,48.72 C417.032,40.368 420.488,37.056 428.336,36.984 L428.336,28.344 C421.856,28.416 418.328,32.232 416.888,35.832 C416.888,33.024 416.816,30.648 416.672,28.992 L408.392,28.992 C408.536,31.296 408.536,35.544 408.536,41.52 L408.536,66 Z M456.632,13.584 L456.632,32.016 C455.768,30.36 453.248,28.272 447.632,28.272 C437.624,28.272 431.792,36.552 431.792,47.568 C431.792,58.872 436.616,66.72 446.12,66.72 C452.024,66.72 454.904,64.848 456.704,61.248 C456.704,62.76 456.92,64.992 456.992,66 L465.272,66 C465.2,63.768 465.128,59.952 465.128,55.92 L465.128,13.584 L456.632,13.584 Z M440.504,47.28 C440.504,39.36 443.888,35.256 449.144,35.256 C454.976,35.256 457.064,38.424 457.064,47.136 C457.064,54.84 455.696,59.736 448.784,59.736 C443.312,59.736 440.504,54.912 440.504,47.28 Z"/>
  </g>
</svg>
