<?xml version="1.0" encoding="UTF-8" standalone="no"?>
<svg width="50px" height="50px" viewBox="0 0 50 50" version="1.1" xmlns="http://www.w3.org/2000/svg" xmlns:xlink="http://www.w3.org/1999/xlink" xmlns:sketch="http://www.bohemiancoding.com/sketch/ns">
    <!-- Generator: Sketch 3.3 (11970) - http://www.bohemiancoding.com/sketch -->
    <title>logo-small</title>
    <desc>Created with Sketch.</desc>
    <defs>
        <path d="M0.233936369,29.2862341 C0.408089,29.5201705 0.642025369,29.6371387 0.933146184,29.6943231 L6.88552714,30.5702849 C7.23643169,31.6203993 7.64452069,32.7302974 8.22676232,33.7804117 C7.87585777,34.3626534 7.29361614,35.1216469 6.47743814,36.1145768 C5.71844458,37.1049075 5.13620295,37.8041173 4.84248284,38.27199 C4.66833021,38.5059264 4.55136203,38.7398628 4.55136203,39.0309836 C4.55136203,39.3221044 4.66833021,39.5560408 4.7852984,39.7899771 C5.66126014,40.9570597 7.41058432,42.7635683 10.1528384,45.2147016 C10.3867748,45.5058224 10.6778956,45.6227906 10.9690164,45.6227906 C11.319921,45.6227906 11.5538574,45.5058224 11.7851944,45.3316698 L16.3963402,41.8304221 C17.2697026,42.2982949 18.2626326,42.6466001 19.3127469,42.9975047 L20.2458931,49.0070701 C20.2458931,49.2981909 20.4200457,49.5321273 20.5967977,49.7062799 C20.830734,49.8830318 21.1218549,50 21.4129757,50 L28.6468081,50 C29.2888334,50 29.639738,49.7062799 29.8138906,49.0642545 C30.1050114,48.0141402 30.3987315,45.9736952 30.7470368,42.9975047 C31.7399667,42.7063839 32.7302974,42.2982949 33.6634435,41.7732377 L38.1576211,45.3316698 C38.4487419,45.5058224 38.7398628,45.6227906 39.0309836,45.6227906 C39.4988563,45.6227906 40.4917862,44.8066126 42.0669578,43.2886255 C43.6421293,41.7134539 44.7494282,40.5463714 45.3342691,39.7899771 C45.5084217,39.5560408 45.6253899,39.3221044 45.6253899,39.0309836 C45.6253899,38.7398628 45.5084217,38.4461426 45.2744853,38.2148056 C43.6993138,36.2887295 42.5322312,34.7707424 41.7732377,33.720628 C42.2411104,32.90445 42.6491994,31.9115201 43.0572884,30.7470368 L49.0668538,29.8112913 C49.3579746,29.8112913 49.591911,29.6371387 49.7660636,29.4032023 C49.9428156,29.169266 50,28.9379289 50,28.6442088 L50,21.4701601 C50,21.17644 49.9428156,20.9451029 49.7660636,20.7111666 C49.591911,20.4772302 49.3579746,20.360262 49.0668538,20.3030776 L43.1170722,19.3699314 C42.7661676,18.319817 42.2982949,17.2697026 41.7732377,16.2195883 C42.1241422,15.6347473 42.7089832,14.8757538 43.5251612,13.8854232 C44.2841547,12.8924932 44.8663963,12.1932834 45.1575172,11.7254107 C45.3342691,11.4914743 45.4512373,11.2601372 45.4512373,10.9664171 C45.4512373,10.6752963 45.3342691,10.44136 45.2173009,10.2672073 C44.3985236,9.1599085 42.6491994,7.29101684 39.8497609,4.72551466 C39.5560408,4.49157829 39.3247037,4.37461011 39.0309836,4.37461011 C38.6826783,4.37461011 38.4487419,4.49157829 38.2148056,4.66573092 L33.6062591,8.16697858 C32.7302974,7.69910584 31.7399667,7.35080058 30.6898524,6.99989603 L29.8138906,0.99033063 C29.8138906,0.699209815 29.639738,0.465273446 29.4629861,0.291120815 C29.231649,0.116968185 28.9379289,0 28.6468081,0 L21.4129757,0 C20.7709503,0 20.4200457,0.291120815 20.2458931,0.933146184 C19.9547723,1.98326055 19.6636515,4.02370555 19.3127469,6.99989603 C18.2626326,7.29101684 17.2697026,7.69910584 16.3365565,8.22416303 L11.8449782,4.72551466 C11.5538574,4.49157829 11.2601372,4.37461011 10.9690164,4.37461011 C10.503743,4.37461011 9.45362861,5.19078811 7.87585777,6.70877521 C6.30328551,8.28394677 5.25057184,9.45102932 4.66833021,10.2100229 C4.49417758,10.5011437 4.3772094,10.7922645 4.3772094,10.9664171 C4.3772094,11.2601372 4.49417758,11.4914743 4.72551466,11.7851944 C6.18631732,13.5345186 7.35080058,15.0525057 8.22676232,16.2767727 C7.64452069,17.2697026 7.23643169,18.2600333 6.94271158,19.2529632 L0.875961738,20.1861094 C0.642025369,20.1861094 0.408089,20.360262 0.233936369,20.5941984 C0.0597837388,20.8281347 0,21.0620711 0,21.3531919 L0,28.5298399 C0,28.8209607 0.0597837388,29.0548971 0.233936369,29.2862341 L0.233936369,29.2862341 Z M25.0151293,20.7920792 C26.1662722,20.7920792 27.1700689,21.2051751 27.9975762,22.0326824 C28.7948249,22.8588741 29.2079208,23.8337278 29.2079208,24.9848707 C29.2079208,26.1662722 28.7948249,27.1411259 27.9975762,27.9673176 C27.1700689,28.7948249 26.1662722,29.2079208 25.0151293,29.2079208 C23.8626708,29.2079208 22.8588741,28.7948249 22.0326824,27.9673176 C21.2051751,27.1411259 20.7920792,26.1662722 20.7920792,24.9848707 C20.7920792,23.8337278 21.2051751,22.8588741 22.0326824,22.0326824 C22.8588741,21.2051751 23.8626708,20.7920792 25.0151293,20.7920792 L25.0151293,20.7920792 Z" id="path-1"></path>
    </defs>
    <g id="Icons" stroke="none" stroke-width="1" fill="none" fill-rule="evenodd" sketch:type="MSPage">
        <g id="logo-small" sketch:type="MSArtboardGroup" transform="translate(-15.000000, -15.000000)">
            <g sketch:type="MSLayerGroup" transform="translate(15.000000, 15.000000)">
                <g id="Cog-3">
                    <use fill="#3B96B5" fill-rule="evenodd" sketch:type="MSShapeGroup" xlink:href="#path-1"></use>
                    <use fill="none" xlink:href="#path-1"></use>
                </g>
                <path d="M8.41355372,27.8705972 C8.53018805,28.0272702 8.68686103,28.1056067 8.88183185,28.1439045 L12.8682888,28.7305578 C13.1032983,29.4338454 13.3766056,30.1771716 13.7665472,30.8804592 C13.5315378,31.2704009 13.1415961,31.7787177 12.5949815,32.4437074 C12.0866647,33.1069564 11.6967231,33.5752345 11.5000114,33.8885805 C11.3833771,34.0452535 11.3050406,34.2019264 11.3050406,34.3968973 C11.3050406,34.5918681 11.3833771,34.7485411 11.4617136,34.905214 C12.0483669,35.6868381 13.2199326,36.8967017 15.0564881,38.5382864 C15.2131611,38.7332572 15.4081319,38.8115937 15.6031027,38.8115937 C15.8381122,38.8115937 15.9947852,38.7332572 16.1497174,38.6166229 L19.2379159,36.2717506 C19.8228284,36.5850966 20.4878181,36.8183652 21.1911057,37.0533747 L21.8160569,41.0781295 C21.8160569,41.2731003 21.9326912,41.4297733 22.0510663,41.5464076 C22.2077393,41.6647828 22.4027101,41.7431193 22.597681,41.7431193 L27.4423577,41.7431193 C27.872338,41.7431193 28.1073475,41.5464076 28.2239818,41.1164273 C28.4189526,40.4131397 28.6156642,39.0466032 28.8489329,37.0533747 C29.5139227,36.8584039 30.1771716,36.5850966 30.8021227,36.2334528 L33.8119848,38.6166229 C34.0069556,38.7332572 34.2019264,38.8115937 34.3968973,38.8115937 C34.7102432,38.8115937 35.375233,38.2649791 36.4301644,37.2483455 C37.4850958,36.1934141 38.2266812,35.41179 38.6183637,34.905214 C38.734998,34.7485411 38.8133345,34.5918681 38.8133345,34.3968973 C38.8133345,34.2019264 38.734998,34.0052148 38.578325,33.8502826 C37.5233936,32.5603418 36.7417695,31.5437082 36.2334528,30.8404206 C36.5467987,30.293806 36.820106,29.6288162 37.0934133,28.8489329 L41.1181682,28.222241 C41.313139,28.222241 41.469812,28.1056067 41.5864463,27.9489337 C41.7048214,27.7922607 41.7431193,27.6373285 41.7431193,27.4406169 L41.7431193,22.6359788 C41.7431193,22.4392672 41.7048214,22.284335 41.5864463,22.127662 C41.469812,21.970989 41.313139,21.8926525 41.1181682,21.8543547 L37.133452,21.2294036 C36.8984425,20.526116 36.5850966,19.8228284 36.2334528,19.1195408 C36.4684622,18.7278583 36.8601447,18.2195415 37.4067593,17.5562926 C37.9150761,16.8913028 38.3050177,16.4230247 38.4999886,16.1096787 C38.6183637,15.9530057 38.6967002,15.7980736 38.6967002,15.6013619 C38.6967002,15.4063911 38.6183637,15.2497181 38.5400272,15.1330838 C37.9916718,14.3914984 36.820106,13.1398553 34.9452527,11.421675 C34.7485411,11.265002 34.5936089,11.1866655 34.3968973,11.1866655 C34.1636286,11.1866655 34.0069556,11.265002 33.8502826,11.3816363 L30.7638249,13.7265086 C30.1771716,13.4131626 29.5139227,13.179894 28.8106351,12.9448845 L28.2239818,8.92012969 C28.2239818,8.72515887 28.1073475,8.56848589 27.9889723,8.45185156 C27.8340402,8.33521722 27.6373285,8.25688073 27.4423577,8.25688073 L22.597681,8.25688073 C22.1677007,8.25688073 21.9326912,8.45185156 21.8160569,8.88183185 C21.621086,9.58511945 21.4261152,10.951656 21.1911057,12.9448845 C20.4878181,13.1398553 19.8228284,13.4131626 19.1978773,13.7648064 L16.189756,11.421675 C15.9947852,11.265002 15.7980736,11.1866655 15.6031027,11.1866655 C15.2914976,11.1866655 14.58821,11.7332801 13.5315378,12.7499137 C12.4783472,13.8048451 11.7733188,14.5864692 11.3833771,15.094786 C11.2667428,15.2897568 11.1884063,15.4847276 11.1884063,15.6013619 C11.1884063,15.7980736 11.2667428,15.9530057 11.421675,16.1497174 C12.4000107,17.3212831 13.179894,18.3379167 13.7665472,19.1578386 C13.3766056,19.8228284 13.1032983,20.4860773 12.9065867,21.1510671 L8.84353401,21.7760182 C8.68686103,21.7760182 8.53018805,21.8926525 8.41355372,22.0493255 C8.29691938,22.2059985 8.25688073,22.3626715 8.25688073,22.5576423 L8.25688073,27.3640212 C8.25688073,27.558992 8.29691938,27.715665 8.41355372,27.8705972 L8.41355372,27.8705972 Z M25.0208897,19.4311459 C26.5440993,19.4311459 27.872338,19.9777605 28.967308,21.0727306 C30.0222395,22.1659598 30.5688541,23.4559007 30.5688541,24.9791103 C30.5688541,26.5423585 30.0222395,27.8322993 28.967308,28.9255286 C27.872338,30.0204986 26.5440993,30.5671133 25.0208897,30.5671133 C23.4959394,30.5671133 22.1677007,30.0204986 21.0744714,28.9255286 C19.9795014,27.8322993 19.4328867,26.5423585 19.4328867,24.9791103 C19.4328867,23.4559007 19.9795014,22.1659598 21.0744714,21.0727306 C22.1677007,19.9777605 23.4959394,19.4311459 25.0208897,19.4311459 L25.0208897,19.4311459 Z" id="Cog-4" opacity="0.574510261" fill="#0E121D" sketch:type="MSShapeGroup"></path>
                <path d="M16.1387479,26.5336067 C16.2010594,26.6173087 16.2847614,26.6591597 16.3889239,26.6796202 L18.5186748,26.9930377 C18.6442279,27.3687667 18.7902413,27.7658862 18.9985663,28.1416152 C18.8730133,28.3499402 18.6646883,28.6215067 18.3726614,28.9767752 C18.1010949,29.3311137 17.8927699,29.5812897 17.7876773,29.7486937 C17.7253659,29.8323957 17.6835149,29.9160977 17.6835149,30.0202602 C17.6835149,30.1244227 17.7253659,30.2081247 17.7672169,30.2918267 C18.0806344,30.7094067 18.7065393,31.3557721 19.6877128,32.2327831 C19.7714148,32.3369456 19.8755773,32.3787966 19.9797398,32.3787966 C20.1052928,32.3787966 20.1889948,32.3369456 20.2717668,32.2746341 L21.9216263,31.0218942 C22.2341138,31.1892982 22.5893823,31.3139211 22.9651113,31.4394742 L23.2989893,33.5896856 C23.2989893,33.6938481 23.3613008,33.7775501 23.4245423,33.8398616 C23.5082443,33.9031031 23.6124068,33.9449541 23.7165693,33.9449541 L26.3048212,33.9449541 C26.5345367,33.9449541 26.6600897,33.8398616 26.7224012,33.6101461 C26.8265637,33.2344171 26.9316562,32.5043496 27.0562792,31.4394742 C27.4115477,31.3353117 27.7658862,31.1892982 28.0997642,31.0014337 L29.7077727,32.2746341 C29.8119352,32.3369456 29.9160977,32.3787966 30.0202602,32.3787966 C30.1876642,32.3787966 30.5429327,32.0867696 31.1065262,31.5436366 C31.6701197,30.9800432 32.0663092,30.5624632 32.2755642,30.2918267 C32.3378757,30.2081247 32.3797267,30.1244227 32.3797267,30.0202602 C32.3797267,29.9160977 32.3378757,29.8110052 32.2541737,29.7282332 C31.6905802,29.0390867 31.2730002,28.4959537 31.0014337,28.1202247 C31.1688377,27.8281977 31.3148512,27.4729292 31.4608647,27.0562792 L33.6110761,26.7214712 C33.7152386,26.7214712 33.7989406,26.6591597 33.8612521,26.5754577 C33.9244936,26.4917557 33.9449541,26.4089837 33.9449541,26.3038912 L33.9449541,23.7370298 C33.9449541,23.6319373 33.9244936,23.5491653 33.8612521,23.4654633 C33.7989406,23.3817613 33.7152386,23.3399103 33.6110761,23.3194498 L31.4822552,22.9855718 C31.3567022,22.6098428 31.1892982,22.2341138 31.0014337,21.8583848 C31.1269867,21.6491298 31.3362417,21.3775633 31.6282687,21.0232248 C31.8998352,20.6679563 32.1081602,20.4177803 32.2123227,20.2503763 C32.2755642,20.1666743 32.3174152,20.0839023 32.3174152,19.9788098 C32.3174152,19.8746473 32.2755642,19.7909453 32.2337132,19.7286338 C31.9407562,19.3324443 31.3148512,18.6637583 30.3132172,17.7458263 C30.2081247,17.6621243 30.1253527,17.6202733 30.0202602,17.6202733 C29.8956372,17.6202733 29.8119352,17.6621243 29.7282332,17.7244358 L28.0793037,18.9771758 C27.7658862,18.8097718 27.4115477,18.6851488 27.0358187,18.5595958 L26.7224012,16.4093844 C26.7224012,16.3052219 26.6600897,16.2215199 26.5968482,16.1592084 C26.5140762,16.0968969 26.4089837,16.0550459 26.3048212,16.0550459 L23.7165693,16.0550459 C23.4868538,16.0550459 23.3613008,16.1592084 23.2989893,16.3889239 C23.1948268,16.7646529 23.0906643,17.4947203 22.9651113,18.5595958 C22.5893823,18.6637583 22.2341138,18.8097718 21.9002358,18.9976363 L20.2931573,17.7458263 C20.1889948,17.6621243 20.0839023,17.6202733 19.9797398,17.6202733 C19.8132658,17.6202733 19.4375368,17.9123003 18.8730133,18.4554333 C18.3103499,19.0190268 17.9336908,19.4366068 17.7253659,19.7081733 C17.6630544,19.8123358 17.6212034,19.9164983 17.6212034,19.9788098 C17.6212034,20.0839023 17.6630544,20.1666743 17.7458263,20.2717668 C18.2684989,20.8976718 18.6851488,21.4408048 18.9985663,21.8788453 C18.7902413,22.2341138 18.6442279,22.5884523 18.5391353,22.9437208 L16.3684634,23.2775988 C16.2847614,23.2775988 16.2010594,23.3399103 16.1387479,23.4236123 C16.0764364,23.5073143 16.0550459,23.5910163 16.0550459,23.6951788 L16.0550459,26.2629702 C16.0550459,26.3671327 16.0764364,26.4508347 16.1387479,26.5336067 L16.1387479,26.5336067 Z M25.0194184,19.7280257 C26.4615227,19.7280257 27.7190376,20.2455351 28.7557046,21.2822021 C29.7544649,22.317221 30.2719743,23.5384773 30.2719743,24.9805816 C30.2719743,26.4605927 29.7544649,27.681849 28.7557046,28.7168678 C27.7190376,29.7535348 26.4615227,30.2710443 25.0194184,30.2710443 C23.575666,30.2710443 22.318151,29.7535348 21.2831322,28.7168678 C20.2464652,27.681849 19.7289557,26.4605927 19.7289557,24.9805816 C19.7289557,23.5384773 20.2464652,22.317221 21.2831322,21.2822021 C22.318151,20.2455351 23.575666,19.7280257 25.0194184,19.7280257 L25.0194184,19.7280257 Z" id="Cog-5" opacity="0.707672575" fill="#8AE332" sketch:type="MSShapeGroup"></path>
            </g>
        </g>
    </g>
</svg>