<svg style="position: absolute; width: 0; height: 0;" width="0" height="0" version="1.1" xmlns="http://www.w3.org/2000/svg" xmlns:xlink="http://www.w3.org/1999/xlink">
<defs>
<symbol id="icon-facebook-square" viewBox="0 0 27 32">
<title>facebook-square</title>
<path class="path1" d="M22.286 2.286q2.125 0 3.634 1.509t1.509 3.634v17.143q0 2.125-1.509 3.634t-3.634 1.509h-3.357v-10.625h3.554l0.536-4.143h-4.089v-2.643q0-1 0.42-1.5t1.634-0.5l2.179-0.018v-3.696q-1.125-0.161-3.179-0.161-2.429 0-3.884 1.429t-1.455 4.036v3.054h-3.571v4.143h3.571v10.625h-9.5q-2.125 0-3.634-1.509t-1.509-3.634v-17.143q0-2.125 1.509-3.634t3.634-1.509h17.143z"></path>
</symbol>
<symbol id="icon-linkedin-square" viewBox="0 0 27 32">
<title>linkedin-square</title>
<path class="path1" d="M4.232 25.25h4.125v-12.393h-4.125v12.393zM8.625 9.036q-0.018-0.929-0.643-1.536t-1.661-0.607-1.688 0.607-0.652 1.536q0 0.911 0.634 1.527t1.652 0.616h0.018q1.054 0 1.696-0.616t0.643-1.527zM19.071 25.25h4.125v-7.107q0-2.75-1.304-4.161t-3.446-1.411q-2.429 0-3.732 2.089h0.036v-1.804h-4.125q0.054 1.179 0 12.393h4.125v-6.929q0-0.679 0.125-1 0.268-0.625 0.804-1.063t1.321-0.438q2.071 0 2.071 2.804v6.625zM27.429 7.429v17.143q0 2.125-1.509 3.634t-3.634 1.509h-17.143q-2.125 0-3.634-1.509t-1.509-3.634v-17.143q0-2.125 1.509-3.634t3.634-1.509h17.143q2.125 0 3.634 1.509t1.509 3.634z"></path>
</symbol>
<symbol id="icon-twitter" viewBox="0 0 30 32">
<title>twitter</title>
<path class="path1" d="M28.929 7.286q-1.196 1.75-2.893 2.982 0.018 0.25 0.018 0.75 0 2.321-0.679 4.634t-2.063 4.437-3.295 3.759-4.607 2.607-5.768 0.973q-4.839 0-8.857-2.589 0.625 0.071 1.393 0.071 4.018 0 7.161-2.464-1.875-0.036-3.357-1.152t-2.036-2.848q0.589 0.089 1.089 0.089 0.768 0 1.518-0.196-2-0.411-3.313-1.991t-1.313-3.67v-0.071q1.214 0.679 2.607 0.732-1.179-0.786-1.875-2.054t-0.696-2.75q0-1.571 0.786-2.911 2.161 2.661 5.259 4.259t6.634 1.777q-0.143-0.679-0.143-1.321 0-2.393 1.688-4.080t4.080-1.688q2.5 0 4.214 1.821 1.946-0.375 3.661-1.393-0.661 2.054-2.536 3.179 1.661-0.179 3.321-0.893z"></path>
</symbol>
<symbol id="icon-github" viewBox="0 0 27 32">
<title>github</title>
<path class="path1" d="M13.714 2.286q3.732 0 6.884 1.839t4.991 4.991 1.839 6.884q0 4.482-2.616 8.063t-6.759 4.955q-0.482 0.089-0.714-0.125t-0.232-0.536q0-0.054 0.009-1.366t0.009-2.402q0-1.732-0.929-2.536 1.018-0.107 1.83-0.321t1.679-0.696 1.446-1.188 0.946-1.875 0.366-2.688q0-2.125-1.411-3.679 0.661-1.625-0.143-3.643-0.5-0.161-1.446 0.196t-1.643 0.786l-0.679 0.429q-1.661-0.464-3.429-0.464t-3.429 0.464q-0.286-0.196-0.759-0.482t-1.491-0.688-1.518-0.241q-0.804 2.018-0.143 3.643-1.411 1.554-1.411 3.679 0 1.518 0.366 2.679t0.938 1.875 1.438 1.196 1.679 0.696 1.83 0.321q-0.696 0.643-0.875 1.839-0.375 0.179-0.804 0.268t-1.018 0.089-1.17-0.384-0.991-1.116q-0.339-0.571-0.866-0.929t-0.884-0.429l-0.357-0.054q-0.375 0-0.518 0.080t-0.089 0.205 0.161 0.25 0.232 0.214l0.125 0.089q0.393 0.179 0.777 0.679t0.563 0.911l0.179 0.411q0.232 0.679 0.786 1.098t1.196 0.536 1.241 0.125 0.991-0.063l0.411-0.071q0 0.679 0.009 1.58t0.009 0.973q0 0.321-0.232 0.536t-0.714 0.125q-4.143-1.375-6.759-4.955t-2.616-8.063q0-3.732 1.839-6.884t4.991-4.991 6.884-1.839zM5.196 21.982q0.054-0.125-0.125-0.214-0.179-0.054-0.232 0.036-0.054 0.125 0.125 0.214 0.161 0.107 0.232-0.036zM5.75 22.589q0.125-0.089-0.036-0.286-0.179-0.161-0.286-0.054-0.125 0.089 0.036 0.286 0.179 0.179 0.286 0.054zM6.286 23.393q0.161-0.125 0-0.339-0.143-0.232-0.304-0.107-0.161 0.089 0 0.321t0.304 0.125zM7.036 24.143q0.143-0.143-0.071-0.339-0.214-0.214-0.357-0.054-0.161 0.143 0.071 0.339 0.214 0.214 0.357 0.054zM8.054 24.589q0.054-0.196-0.232-0.286-0.268-0.071-0.339 0.125t0.232 0.268q0.268 0.107 0.339-0.107zM9.179 24.679q0-0.232-0.304-0.196-0.286 0-0.286 0.196 0 0.232 0.304 0.196 0.286 0 0.286-0.196zM10.214 24.5q-0.036-0.196-0.321-0.161-0.286 0.054-0.25 0.268t0.321 0.143 0.25-0.25z"></path>
</symbol>
<symbol id="icon-pinterest-square" viewBox="0 0 27 32">
<title>pinterest-square</title>
<path class="path1" d="M22.286 2.286q2.125 0 3.634 1.509t1.509 3.634v17.143q0 2.125-1.509 3.634t-3.634 1.509h-12.946q1.518-2.179 1.929-3.75 0.161-0.607 0.946-3.732 0.375 0.696 1.313 1.196t2.009 0.5q3.232 0 5.277-2.634t2.045-6.67q0-1.5-0.625-2.902t-1.723-2.482-2.723-1.732-3.518-0.652q-1.857 0-3.473 0.509t-2.732 1.366-1.92 1.955-1.188 2.286-0.384 2.366q0 1.821 0.705 3.214t2.080 1.964q0.232 0.089 0.42 0t0.259-0.339q0.179-0.786 0.268-1.089 0.107-0.411-0.196-0.75-0.893-1.107-0.893-2.679 0-2.679 1.848-4.58t4.83-1.902q2.661 0 4.152 1.446t1.491 3.75q0 3-1.205 5.107t-3.098 2.107q-1.071 0-1.732-0.777t-0.411-1.848q0.143-0.607 0.473-1.652t0.527-1.821 0.196-1.33q0-0.875-0.473-1.455t-1.348-0.58q-1.089 0-1.848 1.009t-0.759 2.491q0 1.286 0.429 2.161l-1.75 7.393q-0.429 1.786-0.125 4.536h-3.268q-2.125 0-3.634-1.509t-1.509-3.634v-17.143q0-2.125 1.509-3.634t3.634-1.509h17.143z"></path>
</symbol>
<symbol id="icon-youtube-play" viewBox="0 0 32 32">
<title>youtube-play</title>
<path class="path1" d="M22.857 16q0-0.661-0.536-0.964l-9.143-5.714q-0.554-0.357-1.161-0.036-0.589 0.321-0.589 1v11.429q0 0.679 0.589 1 0.286 0.143 0.554 0.143 0.357 0 0.607-0.179l9.143-5.714q0.536-0.304 0.536-0.964zM32 16q0 1.714-0.018 2.679t-0.152 2.438-0.402 2.634q-0.286 1.304-1.232 2.196t-2.214 1.036q-3.964 0.446-11.982 0.446t-11.982-0.446q-1.268-0.143-2.223-1.036t-1.241-2.196q-0.25-1.161-0.384-2.634t-0.152-2.438-0.018-2.679 0.018-2.679 0.152-2.438 0.402-2.634q0.286-1.304 1.232-2.196t2.214-1.036q3.964-0.446 11.982-0.446t11.982 0.446q1.268 0.143 2.223 1.036t1.241 2.196q0.25 1.161 0.384 2.634t0.152 2.438 0.018 2.679z"></path>
</symbol>
<symbol id="icon-instagram" viewBox="0 0 27 32">
<title>instagram</title>
<path class="path1" d="M18.286 16q0-1.893-1.339-3.232t-3.232-1.339-3.232 1.339-1.339 3.232 1.339 3.232 3.232 1.339 3.232-1.339 1.339-3.232zM20.75 16q0 2.929-2.054 4.982t-4.982 2.054-4.982-2.054-2.054-4.982 2.054-4.982 4.982-2.054 4.982 2.054 2.054 4.982zM22.679 8.679q0 0.679-0.482 1.161t-1.161 0.482-1.161-0.482-0.482-1.161 0.482-1.161 1.161-0.482 1.161 0.482 0.482 1.161zM13.714 4.75q-0.125 0-1.366-0.009t-1.884 0-1.723 0.054-1.839 0.179-1.277 0.33q-0.893 0.357-1.571 1.036t-1.036 1.571q-0.196 0.518-0.33 1.277t-0.179 1.839-0.054 1.723 0 1.884 0.009 1.366-0.009 1.366 0 1.884 0.054 1.723 0.179 1.839 0.33 1.277q0.357 0.893 1.036 1.571t1.571 1.036q0.518 0.196 1.277 0.33t1.839 0.179 1.723 0.054 1.884 0 1.366-0.009 1.366 0.009 1.884 0 1.723-0.054 1.839-0.179 1.277-0.33q0.893-0.357 1.571-1.036t1.036-1.571q0.196-0.518 0.33-1.277t0.179-1.839 0.054-1.723 0-1.884-0.009-1.366 0.009-1.366 0-1.884-0.054-1.723-0.179-1.839-0.33-1.277q-0.357-0.893-1.036-1.571t-1.571-1.036q-0.518-0.196-1.277-0.33t-1.839-0.179-1.723-0.054-1.884 0-1.366 0.009zM27.429 16q0 4.089-0.089 5.661-0.179 3.714-2.214 5.75t-5.75 2.214q-1.571 0.089-5.661 0.089t-5.661-0.089q-3.714-0.179-5.75-2.214t-2.214-5.75q-0.089-1.571-0.089-5.661t0.089-5.661q0.179-3.714 2.214-5.75t5.75-2.214q1.571-0.089 5.661-0.089t5.661 0.089q3.714 0.179 5.75 2.214t2.214 5.75q0.089 1.571 0.089 5.661z"></path>
</symbol>
<symbol id="icon-flickr" viewBox="0 0 27 32">
<title>flickr</title>
<path class="path1" d="M22.286 2.286q2.125 0 3.634 1.509t1.509 3.634v17.143q0 2.125-1.509 3.634t-3.634 1.509h-17.143q-2.125 0-3.634-1.509t-1.509-3.634v-17.143q0-2.125 1.509-3.634t3.634-1.509h17.143zM12.464 16q0-1.571-1.107-2.679t-2.679-1.107-2.679 1.107-1.107 2.679 1.107 2.679 2.679 1.107 2.679-1.107 1.107-2.679zM22.536 16q0-1.571-1.107-2.679t-2.679-1.107-2.679 1.107-1.107 2.679 1.107 2.679 2.679 1.107 2.679-1.107 1.107-2.679z"></path>
</symbol>
<symbol id="icon-tumblr-square" viewBox="0 0 27 32">
<title>tumblr-square</title>
<path class="path1" d="M20.286 26.089l-1.107-3.268q-0.786 0.393-1.839 0.393-0.643 0.018-1.107-0.188t-0.688-0.563-0.313-0.723-0.089-0.777v-7.107h4.589v-3.464h-4.571v-5.821h-3.357q-0.143 0-0.161 0.179-0.089 0.786-0.313 1.554t-0.696 1.696-1.375 1.696-2.116 1.214v2.946h2.321v7.464q0 1.018 0.384 2.054t1.161 1.982 2.161 1.527 3.152 0.545q1.232-0.018 2.438-0.446t1.527-0.893zM27.429 7.429v17.143q0 2.125-1.509 3.634t-3.634 1.509h-17.143q-2.125 0-3.634-1.509t-1.509-3.634v-17.143q0-2.125 1.509-3.634t3.634-1.509h17.143q2.125 0 3.634 1.509t1.509 3.634z"></path>
</symbol>
<symbol id="icon-vimeo-square" viewBox="0 0 27 32">
<title>vimeo-square</title>
<path class="path1" d="M23.071 11.393q0.179-3.857-2.875-3.964-4.125-0.143-5.571 4.661 0.786-0.339 1.464-0.339 1.518 0 1.321 1.714-0.071 1.018-1.321 2.982t-1.875 1.964q-0.768 0-1.464-3.018-0.232-0.964-0.804-4.554-0.536-3.375-2.857-3.161-1.054 0.125-2.929 1.786l-2.893 2.571 0.929 1.196q1.357-0.929 1.554-0.929 1.018 0 1.911 3.196 0.268 0.982 0.804 2.938t0.804 2.938q1.214 3.196 2.929 3.196 2.804 0 6.839-5.25 3.929-5.054 4.036-7.929zM27.429 7.429v17.143q0 2.125-1.509 3.634t-3.634 1.509h-17.143q-2.125 0-3.634-1.509t-1.509-3.634v-17.143q0-2.125 1.509-3.634t3.634-1.509h17.143q2.125 0 3.634 1.509t1.509 3.634z"></path>
</symbol>
<symbol id="icon-slack" viewBox="0 0 30 32">
<title>slack</title>
<path class="path1" d="M27.125 13.857q1.107 0 1.848 0.723t0.741 1.813q0 1.732-1.661 2.321l-3.071 1.054 1 2.982q0.125 0.375 0.125 0.839 0 1.054-0.75 1.821t-1.804 0.768q-0.839 0-1.527-0.482t-0.955-1.286l-0.982-2.946-5.536 1.893 0.982 2.929q0.143 0.429 0.143 0.839 0 1.054-0.75 1.821t-1.821 0.768q-0.839 0-1.518-0.482t-0.946-1.286l-0.982-2.911-2.732 0.946q-0.518 0.161-0.893 0.161-1.089 0-1.813-0.714t-0.723-1.804q0-0.839 0.491-1.518t1.277-0.946l2.786-0.946-1.875-5.589-2.786 0.964q-0.464 0.143-0.857 0.143-1.071 0-1.804-0.723t-0.732-1.795q0-0.839 0.491-1.518t1.277-0.946l2.804-0.946-0.946-2.839q-0.143-0.429-0.143-0.839 0-1.071 0.75-1.83t1.821-0.759q0.839 0 1.518 0.482t0.946 1.286l0.964 2.857 5.536-1.875-0.964-2.857q-0.143-0.429-0.143-0.839 0-1.054 0.759-1.821t1.812-0.768q0.839 0 1.527 0.491t0.955 1.277l0.946 2.875 2.893-0.982q0.375-0.107 0.768-0.107 1.071 0 1.83 0.705t0.759 1.759q0 0.804-0.536 1.455t-1.321 0.92l-2.804 0.964 1.875 5.643 2.929-1q0.429-0.143 0.821-0.143zM12.946 18.536l5.536-1.875-1.875-5.625-5.536 1.911z"></path>
</symbol>
<symbol id="icon-snapchat-ghost" viewBox="0 0 30 32">
<title>snapchat-ghost</title>
<path class="path1" d="M15.143 2.286q2.393-0.018 4.295 1.223t2.92 3.438q0.482 1.036 0.482 3.196 0 0.839-0.161 3.411 0.25 0.125 0.5 0.125 0.321 0 0.911-0.241t0.911-0.241q0.518 0 1 0.321t0.482 0.821q0 0.571-0.563 0.964t-1.232 0.563-1.232 0.518-0.563 0.848q0 0.268 0.214 0.768 0.661 1.464 1.83 2.679t2.58 1.804q0.5 0.214 1.429 0.411 0.5 0.107 0.5 0.625 0 1.25-3.911 1.839-0.125 0.196-0.196 0.696t-0.25 0.83-0.589 0.33q-0.357 0-1.107-0.116t-1.143-0.116q-0.661 0-1.107 0.089-0.571 0.089-1.125 0.402t-1.036 0.679-1.036 0.723-1.357 0.598-1.768 0.241q-0.929 0-1.723-0.241t-1.339-0.598-1.027-0.723-1.036-0.679-1.107-0.402q-0.464-0.089-1.125-0.089-0.429 0-1.17 0.134t-1.045 0.134q-0.446 0-0.625-0.33t-0.25-0.848-0.196-0.714q-3.911-0.589-3.911-1.839 0-0.518 0.5-0.625 0.929-0.196 1.429-0.411 1.393-0.571 2.58-1.804t1.83-2.679q0.214-0.5 0.214-0.768 0-0.5-0.563-0.848t-1.241-0.527-1.241-0.563-0.563-0.938q0-0.482 0.464-0.813t0.982-0.33q0.268 0 0.857 0.232t0.946 0.232q0.321 0 0.571-0.125-0.161-2.536-0.161-3.393 0-2.179 0.482-3.214 1.143-2.446 3.071-3.536t4.714-1.125z"></path>
</symbol>
</defs>
</svg>
